<svg height='100px' width='100px'  fill="#000000" xmlns="http://www.w3.org/2000/svg" xmlns:xlink="http://www.w3.org/1999/xlink" version="1.1" x="0px" y="0px" viewBox="0 0 48 48" enable-background="new 0 0 48 48" xml:space="preserve"><path fill="#000000" d="M40.9,20.1h-2.1c-0.2,0-0.4-0.2-0.4-0.4v-4.4c0-7.8-5.9-14.4-13.7-14.8C16.4,0.1,9.6,6.7,9.6,14.9v4.8  c0,0.2-0.2,0.4-0.4,0.4H7.1c-1.5,0-2.7,1.2-2.7,2.7v22c0,1.5,1.2,2.7,2.7,2.7h33.8c1.5,0,2.7-1.2,2.7-2.7v-22  C43.6,21.3,42.4,20.1,40.9,20.1z M25.8,36.9c-0.2,0.1-0.3,0.3-0.3,0.5l0,4.9c0,0.5-0.4,0.9-0.9,0.9h-1.3c-0.5,0-0.9-0.4-0.9-0.9  v-4.9c0-0.2-0.1-0.4-0.3-0.5c-1-0.7-1.4-1.9-1-3.2c0.3-0.9,1-1.7,1.9-2c0.3-0.1,0.6-0.1,0.9-0.1c1.6,0,3,1.3,3,3  C27,35.4,26.5,36.3,25.8,36.9z M33.6,19.7c0,0.2-0.2,0.4-0.4,0.4H14.8c-0.2,0-0.4-0.2-0.4-0.4v-4.5c0-5.1,3.8-9.5,8.9-9.9  c5.6-0.4,10.2,4,10.2,9.5V19.7z"></path></svg>