<svg height='100px' width='100px'  fill="#000000" xmlns="http://www.w3.org/2000/svg" xmlns:xlink="http://www.w3.org/1999/xlink" version="1.1" x="0px" y="0px" viewBox="0 0 48 48" enable-background="new 0 0 48 48" xml:space="preserve"><path fill="#000000" d="M34.8,0.4c-7,0-12.7,6.5-12.7,14.5v4.7c0,0.3-0.3,0.6-0.6,0.6H3.2c-1.5,0-2.7,1.2-2.7,2.7v22.1  c0,1.5,1.2,2.7,2.7,2.7h25.7c1.5,0,2.7-1.2,2.7-2.7V22.8c0-1.5-1.2-2.7-2.7-2.7h-2c-0.3,0-0.6-0.3-0.6-0.6v-4.7  c0-5.3,3.8-9.6,8.4-9.6c4.7,0,8.4,4.3,8.4,9.6v7.5c0,0.3,0.3,0.6,0.6,0.6h3.2c0.3,0,0.6-0.3,0.6-0.6v-7.5  C47.5,6.9,41.8,0.4,34.8,0.4z M17.9,36.8c-0.2,0.2-0.3,0.4-0.3,0.7l0,4.7c0,0.5-0.4,0.9-0.9,0.9h-1.3c-0.5,0-0.9-0.4-0.9-0.9v-4.8  c0-0.3-0.1-0.6-0.3-0.7c-0.9-0.7-1.3-1.9-1-3.1c0.3-0.9,1-1.7,1.9-2c0.3-0.1,0.6-0.1,0.9-0.1c1.6,0,3,1.3,3,3  C19.1,35.4,18.6,36.3,17.9,36.8z"></path></svg>